<?xml version="1.0" ?><!DOCTYPE svg  PUBLIC '-//W3C//DTD SVG 1.1//EN'  'http://www.w3.org/Graphics/SVG/1.1/DTD/svg11.dtd'><svg enable-background="new 0 0 512 512" id="Layer_1" version="1.1" viewBox="0 0 512 512" xml:space="preserve" xmlns="http://www.w3.org/2000/svg" xmlns:xlink="http://www.w3.org/1999/xlink"><g><path d="M257.5,5c74,0,148,0,221.9,0C499,5,511,16.9,511,36.3c0,147.1,0,294.3,0,441.4c0,19.2-12,31.3-31.1,31.3   c-148.6,0-297.3,0-445.9,0c-18.8,0-31-12.1-31-30.8c0-147.5,0-295,0-442.4C3,17.3,15.2,5,33.6,5C108.2,5,182.9,5,257.5,5z    M257.5,19c-74.2,0-148.3,0-222.5,0c-12.3,0-18,5.7-18,18c0,146.7,0,293.3,0,440c0,12.3,5.7,18,18,18c148,0,296,0,444,0   c12.3,0,18-5.7,18-18c0-146.7,0-293.3,0-440c0-12.3-5.7-18-18-18C405.2,19,331.3,19,257.5,19z"/><path d="M399.9,201.3c-13.5,8.4-23.6,19-30.3,32.6c-17,34.8-8.5,84.3,35.2,106.3c4.1,2,4.5,3.9,3,8c-9.9,26.9-24.6,50.8-44.1,71.8   c-10.8,11.7-23.7,19.2-40.2,16.4c-7.5-1.3-15.1-3.2-22-6.3c-20.4-9.1-40.6-8.4-61.2-0.5c-7.3,2.8-14.7,5.4-22.3,7.1   c-16,3.5-28-4.2-38.6-15c-25.8-26.2-42.8-57.5-52.8-92.7c-7.3-25.6-10.9-51.6-6.6-78.1c4.9-30.5,18.2-56,45.7-72.2   c23.2-13.7,47.4-15.1,72.4-4.9c6.9,2.8,14.1,5.1,21.1,7.6c5.1,1.8,10,1.4,15.1-0.4c13.8-4.7,27.5-10.5,41.8-13.2   c32-6.1,59,4.5,80.7,28.6C397.9,197.7,398.7,199.4,399.9,201.3z"/><path d="M334.8,80.2c4.6,46-37.3,88.3-71.4,81.5C259.3,118.8,297.6,82.7,334.8,80.2z"/></g></svg>