<?xml version="1.0" ?><!DOCTYPE svg  PUBLIC '-//W3C//DTD SVG 1.1//EN'  'http://www.w3.org/Graphics/SVG/1.1/DTD/svg11.dtd'><svg enable-background="new 0 0 512 512" id="Layer_1" version="1.1" viewBox="0 0 512 512" xml:space="preserve" xmlns="http://www.w3.org/2000/svg" xmlns:xlink="http://www.w3.org/1999/xlink"><g><path d="M256.5,509c-74,0-148,0-221.9,0C15,509,3,497.1,3,477.7C3,330.5,3,183.4,3,36.3C3,17.1,15,5,34.1,5C182.7,5,331.4,5,480,5   c18.8,0,31,12.1,31,30.8c0,147.5,0,294.9,0,442.4c0,18.5-12.2,30.8-30.6,30.8C405.8,509,331.1,509,256.5,509z M257,495   c74,0,148,0,222,0c12.3,0,18-5.7,18-18c0-146.7,0-293.3,0-440c0-12.3-5.7-18-18-18c-148,0-296,0-444,0c-12.3,0-18,5.7-18,18   c0,146.7,0,293.3,0,440c0,12.3,5.7,18,18,18C109,495,183,495,257,495z"/><path d="M54.9,462.7c4.1-12.2,7.9-23.7,11.7-35.1c7.5-22.4,15.1-44.7,22.5-67.2c0.6-1.9,0.3-4.7-0.6-6.4   C28.3,249.5,74.6,116.5,186.8,71.8c101.9-40.6,218.1,10.8,256.9,113.5C487,300.1,417,425.6,296.4,448.9   c-44.7,8.7-87.4,2.1-128-18.6c-3.2-1.6-5.9-1.9-9.3-0.8c-32.8,10.6-65.6,21.1-98.4,31.6C59,461.6,57.3,462,54.9,462.7z    M105.9,412.5c20.3-6.5,39.5-12.6,58.6-18.9c3.2-1,5.5-0.7,8.3,1c19.8,12.6,41.5,20.4,64.8,23.3c45.5,5.6,86.5-5.6,122.8-33.6   c61-47,80.7-133.6,46-202c-44.3-87.4-150-117.5-233.7-66.6c-75.6,46.1-100.6,148-54.2,223.3c6,9.6,7.3,17.3,3.1,27.7   C115.6,381.2,111.3,396.5,105.9,412.5z"/><path d="M197.4,159c2.8,0.2,4.8,0.5,6.8,0.4c4.2-0.1,7.1,1.9,8.6,5.7c5.6,14.4,11.1,28.9,16.3,43.4c1.8,5-1.4,9.1-4.3,12.7   c-3.2,4.1-6.7,7.8-10.4,11.5c-3.1,3.1-3.4,6.2-1.5,9.9c15.4,28.5,37.7,49.6,67.5,62.6c3.8,1.7,7.1,1.2,9.9-2.1   c5.3-6.2,10.8-12.3,16-18.5c2.8-3.4,5.9-4.9,10-2.8c14,7.3,28,14.5,42,21.9c3.5,1.9,3.8,5.2,3.5,8.7c-2.2,22.8-13.9,34.3-38.9,40.4   c-16.4,4-30.6-3.2-45.3-8.4c-42.9-15.3-72.7-45.6-96.6-83c-8.8-13.7-16.9-27.6-19.3-44c-3.3-21.8,3.4-40.1,20.1-54.5   C186.5,158.8,192.2,158.1,197.4,159z"/></g></svg>