<?xml version="1.0" ?><!DOCTYPE svg  PUBLIC '-//W3C//DTD SVG 1.1//EN'  'http://www.w3.org/Graphics/SVG/1.1/DTD/svg11.dtd'><svg enable-background="new 0 0 512 512" id="Layer_1" version="1.1" viewBox="0 0 512 512" xml:space="preserve" xmlns="http://www.w3.org/2000/svg" xmlns:xlink="http://www.w3.org/1999/xlink"><g><path d="M256.8,509c-74.1,0-148.3,0-222.4,0C14.9,509,3,497,3,477.5c0-147,0-293.9,0-440.9C3,16.8,14.9,5,34.8,5   C182.9,5,331,5,479.2,5C499.3,5,511,16.8,511,37c0,146.8,0,293.6,0,440.4c0,19.8-11.9,31.6-31.8,31.6   C405.1,509,330.9,509,256.8,509z M257,495c74,0,148,0,222,0c12.3,0,18-5.7,18-18c0-146.7,0-293.3,0-440c0-12.3-5.7-18-18-18   c-148,0-296,0-444,0c-12.3,0-18,5.7-18,18c0,146.7,0,293.3,0,440c0,12.3,5.7,18,18,18C109,495,183,495,257,495z"/><path d="M421.5,433.5c-62.6-8.8-124.8-17.5-186.9-26.2c0-46.5,0-92.2,0-138.4c4,0,7.4,0,10.9,0c56.6,0.3,113.3,0.5,169.9,0.8   c6.5,0,6.6,0.1,6.6,6.5c0,50.5,0,101,0,151.4C422,429.3,421.8,430.9,421.5,433.5z"/><path d="M421.5,252.4c-2.7,0-5.1,0-7.4,0c-33.8,0.1-67.6,0.2-101.5,0.4c-24.2,0.1-48.3,0.3-72.5,0.6c-4.8,0.1-6.2-1.4-6.2-6.2   c0.2-42,0.2-84,0-126c0-5.2,1.8-6.7,6.6-7.3c29.6-4,59.2-8.4,88.8-12.6c29.3-4.1,58.7-8.1,88-12.1c1.1-0.2,2.3,0,4,0   C421.5,143.4,421.5,197.4,421.5,252.4z"/><path d="M218.9,117.4c0,45.2,0,90.1,0,136c-46.9,0-93.8,0-141.2,0c0-1.4,0-3.2,0-5c0-35.1,0.1-70.3-0.1-105.4   c0-4.7,1.1-6.6,6.1-7.3c23.9-3.1,47.8-6.6,71.6-9.9c19.8-2.7,39.5-5.4,59.3-8.1C215.9,117.5,217.2,117.5,218.9,117.4z"/><path d="M219,405.2c-17.1-2.4-33.7-4.7-50.3-7.1c-29-4.1-58-8.2-87-12.2c-2.9-0.4-4-1.4-4-4.3c0.1-37,0-73.9,0-110.9   c0-0.7,0.1-1.3,0.2-2.2c46.9,0,93.7,0,141,0C219,314.5,219,359.6,219,405.2z"/></g></svg>