<?xml version="1.0" ?><!DOCTYPE svg  PUBLIC '-//W3C//DTD SVG 1.1//EN'  'http://www.w3.org/Graphics/SVG/1.1/DTD/svg11.dtd'><svg enable-background="new 0 0 512 512" id="Layer_1" version="1.1" viewBox="0 0 512 512" xml:space="preserve" xmlns="http://www.w3.org/2000/svg" xmlns:xlink="http://www.w3.org/1999/xlink"><g><path d="M257.2,5c74.1,0,148.3,0,222.4,0C499.1,5,511,17,511,36.5c0,147,0,293.9,0,440.9c0,19.7-11.9,31.6-31.8,31.6   c-148.1,0-296.3,0-444.4,0C14.9,509,3,497.2,3,477.5c0-147,0-293.9,0-440.9C3,16.8,14.9,5,34.8,5C108.9,5,183.1,5,257.2,5z    M257,495c74,0,148,0,222,0c12.3,0,18-5.7,18-18c0-146.7,0-293.3,0-440c0-12.3-5.7-18-18-18c-148,0-296,0-444,0   c-12.3,0-18,5.7-18,18c0,146.7,0,293.3,0,440c0,12.3,5.7,18,18,18C109,495,183,495,257,495z"/><path d="M268.3,249c-1.6,4.3-3.2,8.6-4.7,12.9c-16.1,46.6-32.2,93.2-48.2,139.8c-1.3,3.9-3.3,5.1-7.2,5c-13-0.5-9.8,2.4-14.4-10.2   C165.1,318,136.5,239.4,108,160.9c-1.4-3.7-3.3-4.8-6.9-4.6c-3.5,0.2-7,0.1-10.5-0.3c-5.5-0.7-8.7-4.3-8.5-9.3   c0.2-4.9,3.8-8.4,9.2-8.6c7.2-0.3,14.3-0.2,21.5-0.4c21.6-0.6,43.3-1.3,64.9-2.1c4.2-0.1,7.2,1.3,8.1,5.7c0.8,3.8-1.8,6.9-6.5,7.9   c-1.8,0.4-3.6,0.4-5.5,0.6c-4.4,0.4-8.9,0.8-14.2,1.3c20.9,62.2,41.6,123.7,62.3,185.3c0.5,0,1,0,1.5,0.1c0.6-1.6,1.4-3.1,1.9-4.7   c11.3-33.6,22.5-67.3,33.9-100.9c1.3-4,1.5-7.6,0-11.6c-7.9-21.2-15.7-42.5-23.2-63.8c-1.2-3.4-2.8-4.8-6.4-4.8   c-4.3-0.1-8.6-0.6-12.9-1.2c-4.8-0.7-7.4-3.7-6.9-7.5c0.5-3.9,3.6-6.2,8.4-6.1c20.8,0.5,41.6,1.3,62.4,1.6c8.5,0.1,16.9-1,25.4-1.5   c6.1-0.4,9.3,1.7,9.6,6.1c0.3,4.2-2.9,7.1-8.7,7.6c-5.6,0.5-11.2,1-17.5,1.5c20.7,61.7,41.3,122.8,62.2,185.2c1.2-2.1,1.9-3,2.2-4   c8.1-25.7,16.3-51.4,24-77.3c6.1-20.4,7.8-41.1-0.6-61.2c-4.4-10.5-11-20.1-16-30.5c-3.7-7.7-7.7-15.7-9.2-24   c-2.6-14,6.5-28.2,19.2-32.7c14.2-5.1,30,0.2,38.2,12.8c6.1,9.4,8.3,19.9,8.8,30.8c1.2,25.8-2.9,50.6-11.6,75   c-19.1,53.7-37.3,107.6-55.9,161.5c-1.9,5.5-4.1,10.9-6,16.4c-1,2.8-2.9,3.2-5.7,3.6c-7.7,1-12.1-1.4-14.8-9.2   c-7.5-21.5-15.8-42.8-23.6-64.2c-9.9-26.9-19.6-53.8-29.4-80.8c-0.4-1.2-1.1-2.3-1.7-3.5C269.2,249,268.7,249,268.3,249z"/></g></svg>