<?xml version="1.0" ?><!DOCTYPE svg  PUBLIC '-//W3C//DTD SVG 1.1//EN'  'http://www.w3.org/Graphics/SVG/1.1/DTD/svg11.dtd'><svg enable-background="new 0 0 512 512" id="Layer_1" version="1.1" viewBox="0 0 512 512" xml:space="preserve" xmlns="http://www.w3.org/2000/svg" xmlns:xlink="http://www.w3.org/1999/xlink"><g><path d="M257.2,5c74.1,0,148.3,0,222.4,0C499,5,511,17,511,36.5c0,147,0,293.9,0,440.9c0,19.8-11.9,31.6-31.7,31.6   c-148.3,0-296.6,0-444.9,0C14.9,509,3,497,3,477.5c0-147,0-293.9,0-440.9C3,16.8,14.9,5,34.7,5C108.9,5,183,5,257.2,5z M256.5,495   c74.2,0,148.3,0,222.5,0c12.3,0,18-5.7,18-18c0-146.7,0-293.3,0-440c0-12.3-5.7-18-18-18c-148,0-296,0-444,0c-12.3,0-18,5.7-18,18   c0,146.7,0,293.3,0,440c0,12.3,5.7,18,18,18C108.8,495,182.7,495,256.5,495z"/><path d="M257.9,143.3c35.6,1.3,71.1,2.3,106.5,3.8c24.3,1.1,38.5,13.7,42.4,38.4c2.3,14.4,3.5,29.1,4,43.7   c0.9,27.5,0.8,55-2.7,82.3c-1.4,11-4,21.7-11.1,30.6c-8.9,11-21.4,14-34.8,14.7c-56.4,3.1-112.9,3.9-169.3,1.6   c-16.5-0.7-32.9-1.6-49.3-3.4c-15.9-1.7-26.8-10.6-32.1-26.1c-4.7-13.6-5.3-27.7-6.2-41.8c-1.8-31.3-1.6-62.6,2-93.8   c0.9-8.1,3.3-16.4,6.6-23.9c6.9-16,21-21.6,37.2-22.3C186.8,145.6,222.4,144.5,257.9,143.3z M226.2,291.6   c27.8-14.4,54.8-28.4,82.6-42.8c-28.1-14.7-55.1-28.7-82.6-43.1C226.2,234.5,226.2,262.6,226.2,291.6z"/></g></svg>