<?xml version="1.0" ?><!DOCTYPE svg  PUBLIC '-//W3C//DTD SVG 1.1//EN'  'http://www.w3.org/Graphics/SVG/1.1/DTD/svg11.dtd'><svg enable-background="new 0 0 512 512" id="Layer_1" version="1.1" viewBox="0 0 512 512" xml:space="preserve" xmlns="http://www.w3.org/2000/svg" xmlns:xlink="http://www.w3.org/1999/xlink"><g><path d="M256.8,509c-74.1,0-148.3,0-222.4,0C14.9,509,3,497,3,477.5c0-147,0-293.9,0-440.9C3,16.8,14.9,5,34.8,5   C182.9,5,331,5,479.2,5C499.3,5,511,16.8,511,37c0,146.8,0,293.6,0,440.4c0,19.8-11.9,31.6-31.8,31.6   C405.1,509,330.9,509,256.8,509z M257,495c74,0,148,0,222,0c12.3,0,18-5.7,18-18c0-146.7,0-293.3,0-440c0-12.3-5.7-18-18-18   c-148,0-296,0-444,0c-12.3,0-18,5.7-18,18c0,146.7,0,293.3,0,440c0,12.3,5.7,18,18,18C109,495,183,495,257,495z"/><path d="M437.2,258.1c4.4,89.9-74,181.2-181.5,179.7c-97.7-1.4-177.4-81-177.2-180C78.6,158.3,159.3,77.6,258.9,78   C364.2,78.5,441.5,167.9,437.2,258.1z M227.4,173.2c-6.6,0.4-18.3,0.3-29.8,2c-17.1,2.4-34.1,5.6-50.9,9.4   c-9.9,2.2-14.7,12-11.8,20.9c3,9.4,12,13.6,21.9,11.1c9.6-2.5,19.4-4.8,29.2-6.3c27.4-4.3,55-4.4,82.6-1.4   c33.5,3.6,65.8,11.4,95.4,28.2c9.1,5.1,19,2.8,23.9-5.4c4.9-8.4,2.3-18.4-7-23.4c-9.6-5.2-19.5-10.1-29.7-14.1   C313,179,273.1,173.9,227.4,173.2z M224.2,235.2c-5.9,0.4-16,0.3-25.8,1.8c-14.1,2.2-28.1,5.2-42,8.4c-6.5,1.5-10.7,8.1-10.3,14.3   c0.5,6.4,5.3,12,11.9,12.8c3,0.4,6.3-0.4,9.3-1.2c31.2-8.9,62.9-10,94.9-5.7c29.1,3.9,56.7,12.5,82,27.8c6.3,3.8,14.3,1.5,18.4-4.8   c3.8-5.8,2.5-14-3.1-18.4c-2.5-1.9-5.3-3.5-8.1-5C313.1,244.4,271.7,235.6,224.2,235.2z M342.3,331.6c0-4.4-1.5-7.4-5.8-9.7   c-7.9-4.3-15.7-8.8-24-12.2c-49.1-20.5-99.3-18.8-150-7.5c-6.6,1.5-9.9,7.5-8.4,13.7c1.5,6,7.4,9.3,14.1,7.8   c25.8-5.5,51.7-9,78.2-6.9c17.3,1.4,34.4,4.3,50.6,10.8c9.7,3.9,18.9,8.9,28.3,13.6C333.6,345.3,342.3,340.5,342.3,331.6z"/></g></svg>